# File created by Luuv tsx 1.1.5
# Created on: Sat Nov 24 10:46:04 2012 0x05946cb0
# Vertices: 6
# Texture vertices: 12
# Normals: 6
# Faces: 5

mtllib supertank_body.mtl
v 1.000000 0.011416 -0.939807
v 1.000000 0.925335 -0.716714
v -3.588269 0.011416 -0.939807
v 1.000000 0.011416 0.939807
v -3.588269 0.011416 0.939807
v 1.000000 0.925335 0.716714

vt 0.000000 0.333333
vt 0.250000 0.000000
vt 1.000000 0.333333
vt 1.000000 0.666667
vt 0.000000 0.666667
vt 0.250000 1.000000
vt 0.250000 0.333333
vt 0.500000 0.000000
vt 0.750000 0.333333
vt 0.500000 0.333333
vt 0.750000 0.666667
vt 0.500000 1.000000

vn 0.579749 -0.517765 -0.629135
vn 0.548388 0.703273 -0.452413
vn -0.846351 -0.082536 -0.526192
vn 0.579748 -0.517765 0.629135
vn -0.846351 -0.082536 0.526192
vn 0.548388 0.703273 0.452413

mtllib supertank_body.mtl

g Default
usemtl Cube,4
f 3/7/3 2/5/2 1/1/1
f 4/8/4 5/10/5 3/7/3 1/2/1
f 2/6/2 3/7/3 5/10/5 6/12/6
f 6/11/6 5/10/5 4/9/4
f 2/4/2 6/11/6 4/9/4 1/3/1

# The end.
