# File created by Luuv tsx 1.1.5
# Created on: Sat Nov 24 12:50:37 2012 0x04d46cb0
# Vertices: 9
# Texture vertices: 22
# Normals: 9
# Faces: 6

mtllib supertank_turret.mtl
v 0.924270 1.420017 -0.344043
v 0.685760 1.422039 -0.344043
v 0.685760 1.422039 0.344043
v 0.924270 1.420017 0.344043
v 0.992495 0.923840 0.444967
v 0.992495 0.923840 -0.444967
v -2.098641 0.308129 0.000001
v 0.688570 0.863302 -0.449422
v 0.687088 0.863007 0.449209

vt 0.000000 0.666667
vt 0.250000 1.000000
vt 1.000000 0.666667
vt 0.250000 0.666667
vt 0.500000 0.666667
vt 0.750000 0.666667
vt 0.500000 1.000000
vt 0.750000 0.474532
vt 0.417278 0.998910
vt 0.394457 0.774341
vt 0.000000 0.666667
vt 0.000000 0.474532
vt 1.000000 0.474532
vt 0.352179 0.774341
vt 0.000000 0.666667
vt 0.500000 0.666667
vt 0.420499 0.666667
vt 0.306833 0.363557
vt 0.153416 0.419044
vt 0.332722 0.998910
vt 0.625000 0.570599
vt 0.371636 0.549773

vn 0.537082 0.661744 -0.523103
vn -0.133981 0.779894 -0.611403
vn -0.134417 0.779734 0.611512
vn 0.536894 0.661740 0.523302
vn 0.646341 -0.422235 0.635579
vn 0.646615 -0.422113 -0.635382
vn -0.773622 -0.633647 0.000318
vn 0.135481 -0.623511 -0.769986
vn 0.134930 -0.623726 0.769909

mtllib supertank_turret.mtl

g Default
s 1
usemtl NoName,2
f 2/4/2 3/5/3 4/7/4 1/2/1
f 4/6/4 3/5/3 7/16/7 9/21/9 5/8/5
f 3/5/3 2/4/2 7/17/7
f 4/6/4 5/8/5 6/13/6 1/3/1
f 2/4/2 1/1/1 6/12/6 8/19/8 7/18/7
f 6/20/6 5/9/5 9/10/9 7/22/7 8/14/8

# The end.
