# File created by Luuv tsx 1.1.5
# Created on: Sat Nov 24 00:49:41 2012 0x05946cb0
# Vertices: 8
# Texture vertices: 22
# Normals: 8
# Faces: 6

mtllib tank_barrel.mtl
v 0.060000 1.094374 1.285364
v -0.060000 1.094374 1.285364
v -0.060000 1.214374 1.285364
v 0.060000 1.214374 1.285364
v 0.060000 1.214366 -0.847052
v -0.060000 1.214366 -0.847052
v 0.060000 1.094374 -0.463941
v -0.060000 1.094374 -0.463941

vt 0.965563 0.333333
vt 0.965563 0.333333
vt 0.500000 0.000000
vt 0.750000 0.333333
vt 0.500000 0.333333
vt 0.500000 0.666667
vt 0.750000 0.666667
vt 0.500000 1.000000
vt 0.284437 0.333333
vt 0.257742 0.666667
vt 0.257742 1.000000
vt 0.284437 0.000000
vt 0.325040 0.850405
vt 0.325040 0.850405
vt 0.992258 0.666667
vt 0.992258 0.666667
vt 0.325040 0.816251
vt 0.325040 0.816251
vt 0.374681 0.850405
vt 0.374681 0.850405
vt 0.374681 0.816251
vt 0.374681 0.816251

vn 0.047890 -0.047887 0.997704
vn -0.047890 -0.047887 0.997704
vn -0.047893 0.047890 0.997704
vn 0.047893 0.047890 0.997704
vn 0.043779 0.041125 -0.998194
vn -0.043779 0.041125 -0.998194
vn 0.053103 -0.055747 -0.997032
vn -0.053103 -0.055747 -0.997032

mtllib tank_barrel.mtl

g Default
s 1
usemtl Cube,1
f 1/3/1 2/5/2 8/9/8 7/12/7
f 2/5/2 3/6/3 6/10/6 8/9/8
f 3/6/3 4/8/4 5/11/5 6/10/6
f 4/7/4 3/6/3 2/5/2 1/4/1
f 4/7/4 1/4/1 7/1/7 5/15/5
f 6/17/6 5/13/5 7/19/7 8/21/8

# The end.
